# xmcd CD database file
# Copyright (C) 1996 Ti Kan
#
# Track frame offsets:
#	150
#	16405
#	38877
#	60151
#	80919
#	98790
#	121652
#	136424
#	164017
#	181937
#	202943
#	221880
#	240647
# Disc length: 3434 seconds
#
# Revision: 1
# Processed by: cddbd v1.4PL0 Copyright (c) Steve Scherf et al.
# Submitted via: CDCOPY 4.744
#
DISCID=af0d680d
DTITLE=Toxic Virgin - Circle of Power
DYEAR=1900
DGENRE=
TTITLE0=Broken Wings
TTITLE1=Son of the Sun
TTITLE2=Restless Hearts
TTITLE3=Waiting for the Rain
TTITLE4=Rock Tonight
TTITLE5=Until the End
TTITLE6=Alien Love Song
TTITLE7=Our only Hope
TTITLE8=Sailor
TTITLE9=Fireball
TTITLE10=Don't know what I want
TTITLE11=Walk on Water
TTITLE12=All For One
EXTD=
EXTT0=
EXTT1=
EXTT2=
EXTT3=
EXTT4=
EXTT5=
EXTT6=
EXTT7=
EXTT8=
EXTT9=
EXTT10=
EXTT11=
EXTT12=
PLAYORDER=
